<svg version="1.1" xmlns="http://www.w3.org/2000/svg"
  xmlns:xlink="http://www.w3.org/1999/xlink" width="100" height="100"
  viewBox="797,386,100,100">
  <defs>
    <clipPath id="clip-1">
      <rect x="797" y="386" width="100" height="100" id="clip-1" fill="none"
        stroke="none" stroke-width="1" stroke-linecap="butt" />
    </clipPath>
  </defs>
  <g fill="none" fill-rule="nonzero" stroke="none" stroke-width="none"
    stroke-linecap="none" stroke-linejoin="miter" stroke-miterlimit="10"
    stroke-dasharray="" stroke-dashoffset="0" font-family="none"
    font-weight="none" font-size="none" text-anchor="none"
    style="mix-blend-mode: normal">
    <g>
      <g clip-path="url(#clip-1)" id="Group 1">
        <path
          d="M817,401h60c5,0 10,5 10,10v55c0,5 -5,10 -10,10h-60c-5,0 -10,-5 -10,-10v-55c0,-5 5,-10 10,-10z"
          id="Path 1" fill="none" stroke="#000000" stroke-width="8"
          stroke-linecap="butt" />
        <path d="M827,391v15" id="Path 1" fill="#000000" stroke="#000000"
          stroke-width="8" stroke-linecap="round" />
        <path d="M867,391v15" id="Path 1" fill="#000000" stroke="#000000"
          stroke-width="8" stroke-linecap="round" />
        <circle cx="827" cy="431" r="5" id="Shape 1" fill="#000000"
          stroke="none" stroke-width="1" stroke-linecap="butt" />
        <rect x="842" y="426" width="10" height="10" id="Shape 1" fill="#000000"
          stroke="none" stroke-width="1" stroke-linecap="butt" />
        <rect x="862" y="426" width="10" height="10" id="Shape 1" fill="#000000"
          stroke="none" stroke-width="1" stroke-linecap="butt" />
        <rect x="842" y="446" width="10" height="10" id="Shape 1" fill="#000000"
          stroke="none" stroke-width="1" stroke-linecap="butt" />
        <rect x="862" y="446" width="10" height="10" id="Shape 1" fill="#000000"
          stroke="none" stroke-width="1" stroke-linecap="butt" />
      </g>
    </g>

  </g>
</svg>